<?xml version="1.0" encoding="UTF-8"?>
<svg id="Layer_1" data-name="Layer 1" xmlns="http://www.w3.org/2000/svg" viewBox="0 0 264.34 268.4">
  <defs>
    <style>
      .cls-1 {
        fill: #ffffff;
        stroke-width: 0px;
      }
    </style>
  </defs>
  <g>
    <path class="cls-1" d="M127.33,264.57c-57.76,3.74-118.36-17.23-125.83-82.35-.45-5.09-1.08-13.95-1.51-19.1,42.01-2.04,85.37-3.91,127.32-5.37,45.48-1.85,91.42-6.33,137.01-4.42-.12,4.68-1.09,22.26-1.21,26.53-3.42,52.68-42.24,84.47-92.81,88.14-14.67,1.05-29.12.05-42.99-3.43l.02-4c29.58-7.84,63.05-18.26,81.9-42.48,9.89-12.77,12.8-28.41,12.61-44.34,0,0,20.78,20.78,20.78,20.78-19.22.32-38.43-.48-57.65-1.69-48.01-3.28-96.07-4.23-144.12-6.54,0,0-28.82-1.35-28.82-1.35,0,0,11.2-11.2,11.2-11.2-.01,1.6-.11,5.39-.13,6.92.13,2.23.22,4.64.39,6.85,0,0,.59,4.5.59,4.5,6.6,48.06,60.67,65.78,103.24,68.54,0,0,.02,4,.02,4h0Z"/>
    <path class="cls-1" d="M78.65,139.59c-13.03,4.02-27.18,2.85-39.3-3.83-13.26-7.45-21.39-22.58-16.01-37.6,3.17-9.1,11.94-16.06,20.28-17.51,7.62-1.47,13.51.3,20.09,2.37,10.32,3.67,19.67,5.65,30.23,1.79,8.71-2.84,17.08-10.76,23.03-16.87,2.17-2.36,4.53-4.3,5.77-6.75.6-1.31.46-2.49-.71-2.77-.3-.08-.54-.14-.57-.45-.05-.31.03-.87.15-1.75.91-6.77.44-13.11.06-20.66-.54-10.6-1.32-21.01-.21-32.55,0,0,4.04-2.95,4.04-2.95,3.24.71,6.23,1.67,9.05,2.82,20.63,8.55,37.32,26.34,40.38,49.6,1.8,13.49-3.38,28.94-13.38,38.53-8.59,8.31-19.39,13.75-30.86,14.78-6.48.54-12.61-.45-18.33-1.63-16.46-3.8-30.98-5.34-44.59,6.11-1.4,1-11.39,9.84-7.83,9.8.7-.16,2.08-.84,3.7-2.87.85-1.09,1.63-2.46,2.11-3.82,1-2.61,1.21-5.52.6-8.24-.28-1.18-.87-2.85-1.73-3.57-.04-.03-.04-.03-.07-.04-.04-.01-.09-.02-.15-.01-.18-.04-.08.16-.09.31v.26c.3.93.8,1.87,1.24,2.78,3.64,6.25,8.68,13.98,11.95,21.34,1.2,2.73,2.46,5.51,3.44,8.94l-2.29,4.44h0Z"/>
    <path class="cls-1" d="M165.68,133.23c15.57-4.49,31.73-8.58,47.11-13.48,5.75-1.85,11.79-3.83,17.15-6.23,1.89-.87,4.47-2.05,5.66-3.31.43-.82-1.42.41-2.24,1.83-2.08,3.2-2.12,7.71-.48,11.06.12.45,1.03,1.7.57,1.78-1.65-.26-3.09-1.09-5.19-1.97-19.23-8.78-24.5-32-7.2-45.54,10.55-7.69,23.41-8.77,35.63-6.43,1.92.39,3.84.9,5.81,1.63,0,0,1.11,3.32,1.11,3.32-3.84,5.96-8.93,11.48-13.34,16.65-13.14,14.55-.22,9.82-4.6-.33-.14-.33-.46-.78-.62-1-.24-.28-.25-.25-.25-.18,4.27,5.39,10.9,9.54,14.42,16.3,5.79,10.71.7,22.44-9.66,27.13-16.63,7.67-45.52,5.6-63.78,4.36-6.65-.56-13.26-1.2-19.86-2.11,0,0-.25-3.49-.25-3.49h0Z"/>
  </g>
  <path class="cls-1" d="M64.26,100.26c.24.89.16,1.73-.27,2.55l2.36-.3c-.28-.33-.5-.71-.65-1.11l-2.74,1.16c.7.95,1.21,1.94,1.53,3.08.54,1.86,3.31,1.08,2.89-.8l-.58-2.6c-.39-1.74-2.82-1.21-2.95.4-.24,3.04-.6,6.07-1.09,9.08-.27,1.61,1.8,2.69,2.74,1.16l.69-1.13-2.8-.76c-.03,1.31-.38,2.49-1.05,3.62l2.74.36c-.28-1.01-.03-1.94.71-2.68l-2.51-.66c.18.69.26,1.38.17,2.09-.04.34-.13.68-.24,1.01l-.12.34c-.36.55.05.8,1.25.75-.41-1.13-2.1-1.59-2.74-.36s-1.57,2.33-2.8,3.12l2.2.9c-.21-1.04.07-2.13.76-2.94l-2.51-.66c.47,1.51.49,3.12-.13,4.59h2.59c-.35-.61-.41-1.15-.21-1.82.54-1.86-2.36-2.65-2.89-.8-.41,1.43-.23,2.85.52,4.14.51.88,2.14,1.07,2.59,0,.95-2.23,1.16-4.57.43-6.9-.31-1-1.74-1.56-2.51-.66-1.43,1.68-1.96,3.7-1.53,5.86.18.93,1.43,1.39,2.2.9,1.64-1.05,2.97-2.46,3.87-4.19l-2.74-.36c.72,1.98,3.13,1.91,4.12.18s1.1-4.03.59-5.97c-.29-1.1-1.72-1.45-2.51-.66-1.48,1.48-2.04,3.58-1.49,5.6.34,1.25,2.08,1.46,2.74.36.94-1.58,1.42-3.3,1.46-5.13.04-1.52-2.04-2-2.8-.76l-.69,1.13,2.74,1.16c.54-3.28.94-6.57,1.2-9.88l-2.95.4.58,2.6,2.89-.8c-.39-1.37-1-2.65-1.84-3.8-.45-.61-1.14-.92-1.87-.61-.63.27-1.14,1.07-.87,1.77.35.92.8,1.68,1.43,2.43s1.93.5,2.36-.3c.81-1.54,1.02-3.17.58-4.86-.49-1.87-3.39-1.07-2.89.8h0Z"/>
  <path class="cls-1" d="M123.12,55.59c-.81,1.14-1.14,2.52-1.36,3.88-.2,1.25-.39,2.7-.88,3.63l2.74,1.16c.18-1.17.68-2.27.87-3.44.21-1.29.31-2.59.39-3.89.04-.74-.6-1.39-1.3-1.47-.79-.09-1.37.36-1.65,1.07-.63,1.65-.66,3.42-.98,5.08-.17.88-.45,1.73-.78,2.56-.18.46-.25.66-.4.96-.07.13-.14.28-.23.4.08-.1.06-.09-.06.04.11-.08.09-.07-.06.02-.71.39-.94,1.37-.54,2.05s1.34.93,2.05.54c.92-.51,1.39-1.39,1.77-2.32s.78-1.9,1.02-2.9c.46-1.92.38-3.79,1.09-5.63l-2.95-.4c-.07,1.1-.12,2.21-.31,3.29s-.67,2.14-.84,3.24c-.11.74.12,1.47.87,1.77.66.27,1.52.06,1.87-.61.67-1.27.92-2.63,1.13-4.03.1-.63.2-1.26.36-1.87.18-.68.3-.99.75-1.61.47-.66.12-1.67-.54-2.05-.75-.44-1.58-.12-2.05.54h0Z"/>
  <path class="cls-1" d="M122.17,55.79c-.8,1.87-1.57,3.76-2.4,5.61-.78,1.72-1.8,3.25-2.86,4.81-2.07,3.03-4.06,6.16-6.87,8.58-1.47,1.26.66,3.37,2.12,2.12,2.9-2.49,5-5.75,7.13-8.88,1.06-1.56,2.13-3.09,2.93-4.8.9-1.95,1.7-3.94,2.54-5.92.32-.75.22-1.6-.54-2.05-.63-.38-1.74-.21-2.05.54h0Z"/>
  <path class="cls-1" d="M125.25,3.02c1.93,0,1.93-3,0-3s-1.93,3,0,3h0Z"/>
  <path class="cls-1" d="M124.45,2.93c0-.28-.01-.57.02-.84l-.05.4s.01-.08.03-.11l-.15.36s.03-.05.04-.08l-.23.3s.05-.05.08-.08l-.3.23c.07-.05.16-.09.24-.12l-.36.15c.21-.08.42-.14.64-.17l-.4.05c.23-.03.46-.03.7,0l-.4-.05s.09.01.13.02c.2.06.4.07.6.03.2,0,.39-.07.56-.18.17-.09.32-.22.42-.39.13-.14.22-.31.27-.51.09-.38.07-.81-.15-1.16-.2-.31-.52-.62-.9-.69s-.77-.12-1.16-.08c-.25.03-.51.06-.76.12s-.47.17-.7.27c-.06.02-.11.05-.17.08-.03.01-.05.03-.07.05-.12.08-.25.17-.35.27-.13.12-.24.26-.31.42-.16.32-.2.52-.23.87-.03.28-.01.56-.02.84,0,.21.04.4.13.58.06.19.16.35.31.48.14.15.3.25.48.31.18.09.37.14.58.13.39-.02.79-.14,1.06-.44s.43-.65.44-1.06h0Z"/>
  <path class="cls-1" d="M246.3,102.08c.07-.52.11-1.02.09-1.55-.01-.36-.05-.86-.02-1.13.05-.42.21-.83.29-1.25.11-.59.13-1.11.03-1.69-.03-.18-.07-.35-.11-.52-.02-.08-.12-.57-.11-.47-.05-.43-.02-.87-.01-1.3.02-.93.07-1.87.16-2.8.08-.81-.74-1.5-1.5-1.5-.87,0-1.42.69-1.5,1.5-.17,1.76-.36,3.63.07,5.36.08.32.1.47.06.71-.07.39-.2.77-.28,1.16-.1.52-.12,1.02-.1,1.54.01.36.08.84.03,1.14-.11.8.2,1.61,1.05,1.85.7.19,1.73-.24,1.85-1.05h0Z"/>
  <path class="cls-1" d="M237.22,109.07c-.45-.08-.75-.09-1.2,0-.29.06-.55.18-.82.3-.34.15-.68.31-1,.49-.66.36-1.28.76-1.91,1.17-.33.21-.58.52-.69.9-.1.36-.05.84.15,1.16s.51.6.9.69.82.07,1.16-.15c.94-.61,1.88-1.22,2.91-1.66l-.36.15c.17-.07.34-.13.52-.16l-.4.05c.09,0,.18-.01.27,0l-.4-.05h.07c.41.08.79.08,1.16-.14.31-.18.61-.54.69-.9.09-.38.07-.81-.15-1.16-.2-.31-.52-.62-.9-.69h0Z"/>
  <path class="cls-1" d="M260.43,74.32c.1.31.21.51.44.75.11.12.27.21.4.31l-.3-.23s.06.05.09.08l-.23-.3s.02.04.03.06l-.15-.36c.05.12.06.26.08.39l-.05-.4c.02.15.03.29.01.44l.05-.4c-.01.08-.03.16-.06.23-.07.27-.07.53,0,.8.05.2.14.37.27.51.11.16.25.29.42.39.23.14.49.2.76.2.01,0,.03,0,.04,0l.4-.05c.07-.02.13-.05.2-.08.09-.04.14-.05.2-.09.05-.04.11-.08.16-.12.06-.03.12-.08.16-.13.15-.14.25-.3.31-.48.09-.18.14-.37.13-.58,0-.21-.04-.4-.13-.58-.06-.19-.16-.35-.31-.48l-.3-.23c-.23-.14-.49-.2-.76-.2l-.4.05c-.25.07-.47.2-.66.39h-.01c.1-.06.2-.14.3-.22,0,0-.02.02-.03.02l.36-.15h-.02c.13-.01.27-.03.4-.05-.01,0-.03,0-.04,0l1.45,1.9c.02-.06.04-.12.05-.19.03-.19.06-.38.07-.57,0-.25-.04-.51-.08-.74-.02-.12-.03-.24-.07-.35-.1-.32-.22-.52-.45-.77-.12-.12-.27-.21-.4-.31l.3.23s-.06-.05-.09-.08l.23.3s-.02-.03-.02-.04l.15.36v-.02c-.05-.2-.14-.37-.27-.51-.11-.16-.25-.29-.42-.39-.17-.11-.36-.17-.56-.18-.2-.04-.4-.04-.6.03l-.36.15c-.23.13-.4.31-.54.54l-.15.36c-.07.27-.07.53,0,.8h0Z"/>
  <path class="cls-1" d="M165.81,133.2l-.13.02.8,2.89s.08-.02.13-.03c.02,0,.04-.01.06-.02.14-.06.28-.11.41-.18l.3-.23c.15-.14.25-.3.31-.48.07-.12.1-.24.1-.38.04-.2.04-.4-.03-.6l-.15-.36-.23-.3c-.14-.15-.3-.25-.48-.31-.18-.09-.37-.14-.58-.13-.02,0-.05,0-.07,0-.15,0-.31.03-.46.06-.14.03-.36.14-.41.17-.02,0-.04.02-.06.03-.12.08-.24.17-.35.27,0,0-.02.02-.02.02,0,0,0,.01-.01.02l-.23.3s-.06.1-.08.15-.14.29-.18.43c-.01.07-.02.14-.03.21-.01.07-.02.14-.03.21,0,.07.02.18.03.23,0,0,.01.16.03.22,0,0,0,0,0,.01l.15.36c.06.12.25.33.26.34.05.06.12.1.17.16l-.23-.3s.01.02.02.03c.09.17.22.32.39.42.14.13.31.22.51.27.2.06.4.07.6.03.2,0,.39-.07.56-.18l.3-.23c.19-.19.31-.41.39-.66l.05-.4c0-.27-.07-.52-.2-.76,0,0-.01-.02-.02-.03-.07-.09-.17-.23-.24-.31,0,0,0,0-.01-.01-.02-.02-.03-.03-.05-.05-.03-.03-.07-.06-.1-.09l.23.3s-.02-.03-.02-.04l.15.36s0-.02-.01-.04l.05.4s0-.03,0-.04l-.05.4s.02-.06.03-.08l-.15.36c.02-.05.04-.1.08-.15l-.23.3s.04-.04.06-.06l-.3.23s.05-.03.08-.04l-.36.15s.06-.02.09-.03l-.4.05s.06,0,.09,0l-.76-2.8s-.03.01-.04.02l.36-.15c-.06.03-.13.05-.19.06-.2.05-.37.14-.51.27-.16.11-.29.25-.39.42-.11.17-.17.36-.18.56-.04.2-.04.4.03.6l.15.36c.13.23.31.4.54.54l.36.15c.27.07.53.07.8,0l.13-.02c.2-.05.37-.14.51-.27.16-.11.29-.25.39-.42.11-.17.17-.36.18-.56.04-.2.04-.4-.03-.6l-.15-.36c-.13-.23-.31-.4-.54-.54l-.36-.15c-.27-.07-.53-.07-.8,0h0Z"/>
  <path class="cls-1" d="M121.56,57.24c.02.06.03.13.04.19l-.05-.4c.02.17.02.35,0,.52l.05-.4c-.05.38-.18.73-.31,1.09l2.95.4c0-.17,0-.34.03-.51l-.05.4c.02-.16.06-.32.1-.47.06-.2.07-.4.03-.6,0-.2-.07-.39-.18-.56-.09-.17-.22-.32-.39-.42-.14-.13-.31-.22-.51-.27-.38-.09-.81-.07-1.16.15s-.57.51-.69.9c-.09.28-.12.57-.16.87-.02.17-.03.34-.03.51,0,.21.04.4.13.58.06.19.16.35.31.48l.3.23c.17.11.36.17.56.18.13.04.27.04.4,0,.2,0,.39-.07.56-.18l.3-.23c.19-.19.31-.41.39-.66.11-.3.22-.61.28-.93.11-.57.14-1.1-.01-1.67-.05-.2-.14-.37-.27-.51-.11-.16-.25-.29-.42-.39-.17-.11-.36-.17-.56-.18-.2-.04-.4-.04-.6.03-.36.12-.71.34-.9.69s-.25.75-.15,1.16h0Z"/>
</svg>